# xmcd CD database file
#
# Track frame offsets:
#	150
#	21635
#	40072
#	52387
#	69967
#	88730
#	105060
#	129465
#	150612
#	167575
#
# Disc length: 2514 seconds
#
# Revision: 0
# Processed by: cddbd v1.5.1PL2 Copyright (c) Steve Scherf et al.
# Submitted via: CDex 1.51
#
DISCID=7c09d00a
DTITLE=佐藤美紀子・他 - オリジナルイメージボーカル集　ももいろシスターズ
DYEAR=1900
DGENRE=アニメ
TTITLE0=佐藤美紀子/輝きにかえて
TTITLE1=白鳥由里/夏休み
TTITLE2=かないみか/あいがいっぱい
TTITLE3=水谷優子/『純愛ラブラブクッキング』〜あふれる愛は無敵なの〜
TTITLE4=折笠愛/さくら Blossom!
TTITLE5=根谷美智子/寝顔にキス
TTITLE6=吉田古奈美/『I wish……』
TTITLE7=岡本麻弥/「そばにいるね」
TTITLE8=白鳥由里/いつまでも
TTITLE9=CAZACY/青空
EXTD=
EXTT0=
EXTT1=
EXTT2=
EXTT3=
EXTT4=
EXTT5=
EXTT6=
EXTT7=
EXTT8=
EXTT9=
PLAYORDER=
